<?xml version="1.0" standalone="no"?>
<!DOCTYPE svg PUBLIC "-//W3C//DTD SVG 20010904//EN"
 "http://www.w3.org/TR/2001/REC-SVG-20010904/DTD/svg10.dtd">
<svg version="1.0" xmlns="http://www.w3.org/2000/svg"
 width="1000.000000pt" height="234.000000pt" viewBox="0 0 1000.000000 234.000000"
 preserveAspectRatio="xMidYMid meet">

<g transform="translate(0.000000,234.000000) scale(0.100000,-0.100000)"
fill="#000000" stroke="none">
<path d="M317 1823 c37 -58 62 -73 119 -73 59 0 74 14 74 69 l0 31 -105 0
-105 0 17 -27z"/>
<path d="M970 1819 c0 -55 15 -69 73 -69 29 0 57 4 62 8 18 12 65 73 65 83 0
5 -45 9 -100 9 l-100 0 0 -31z"/>
<path d="M1470 1846 c0 -13 34 -82 44 -88 6 -4 34 -8 63 -8 48 0 53 2 72 34
39 62 33 66 -79 66 -55 0 -100 -2 -100 -4z"/>
<path d="M2252 1834 c-67 -18 -148 -56 -187 -88 l-30 -25 30 -1 c44 0 79 11
65 20 -8 5 -1 10 19 15 17 3 31 10 31 14 0 3 12 12 28 18 118 49 145 62 122
62 -14 0 -49 -7 -78 -15z"/>
<path d="M3110 1846 c0 -13 34 -82 44 -88 6 -4 34 -8 63 -8 48 0 53 2 72 34
39 62 33 66 -79 66 -55 0 -100 -2 -100 -4z"/>
<path d="M4900 1844 c0 -11 23 -50 43 -71 16 -18 31 -23 73 -23 58 0 68 9 79
69 l5 31 -100 0 c-55 0 -100 -3 -100 -6z"/>
<path d="M5450 1821 c0 -17 5 -33 10 -36 6 -4 8 -11 5 -16 -8 -12 -21 -11 209
-13 220 -2 202 -7 220 67 l6 27 -225 0 -225 0 0 -29z"/>
<path d="M6248 1844 c-9 -8 12 -78 26 -86 6 -4 31 -8 56 -8 54 0 60 4 94 58
l26 42 -98 0 c-54 0 -101 -3 -104 -6z"/>
<path d="M6954 1826 c-3 -13 -4 -35 -2 -47 2 -20 10 -24 46 -27 26 -2 53 3 65
11 60 39 170 40 243 2 16 -8 46 -15 66 -15 44 0 61 22 49 66 l-7 29 -227 3
-227 2 -6 -24z"/>
<path d="M7940 1846 c0 -13 34 -82 44 -88 6 -4 34 -8 61 -7 46 0 54 4 103 49
l53 50 -130 0 c-72 0 -131 -2 -131 -4z"/>
<path d="M9010 1846 c0 -13 34 -82 44 -88 6 -4 34 -8 61 -8 53 0 50 -2 113 73
l24 27 -121 0 c-67 0 -121 -2 -121 -4z"/>
<path d="M8500 1809 c25 -18 51 -39 58 -46 7 -7 18 -13 23 -13 6 0 8 -4 5 -9
-3 -5 1 -12 10 -15 25 -10 94 -7 94 3 0 28 -107 83 -205 106 -28 6 -27 4 15
-26z"/>
<path d="M1216 1457 c-65 -205 -144 -456 -177 -560 l-60 -187 -241 2 -240 3
-174 549 c-95 302 -176 551 -180 555 -4 3 -4 -16 -2 -44 4 -44 263 -881 317
-1026 35 -93 28 -89 186 -96 77 -3 184 -2 238 2 l99 7 24 54 c13 29 75 217
138 416 119 374 154 473 182 517 l17 25 10 -25 c6 -14 13 -212 16 -485 6 -428
7 -463 24 -482 15 -16 36 -22 110 -27 51 -4 126 -3 167 2 66 7 76 11 87 33 6
14 16 108 21 213 5 104 14 193 19 198 6 6 29 -28 63 -98 92 -185 223 -296 401
-338 84 -19 267 -20 344 0 104 26 212 88 302 170 45 41 84 72 86 68 3 -5 10
-53 17 -108 16 -143 12 -140 205 -140 188 0 184 -2 196 117 10 103 10 937 0
998 l-7 45 -8 -55 c-4 -30 -6 -274 -5 -543 2 -314 -1 -491 -8 -498 -6 -6 -76
-8 -179 -7 l-169 3 -5 555 c-3 305 -8 546 -12 535 -3 -11 -12 -66 -18 -123
-11 -91 -14 -101 -26 -85 -8 10 -13 13 -12 7 4 -14 -232 -204 -254 -204 -10 0
-28 14 -40 31 -81 108 -258 137 -366 59 -137 -99 -111 -361 43 -431 86 -40
233 -14 290 51 16 18 12 17 -25 -7 -63 -42 -112 -56 -181 -51 -114 8 -189 93
-189 212 1 144 91 225 236 213 68 -5 106 -23 181 -89 24 -21 50 -38 57 -38 8
0 73 45 145 101 73 56 135 98 139 94 4 -4 7 -111 7 -238 0 -244 -6 -283 -43
-270 -15 6 -15 4 2 -15 18 -21 18 -22 -29 -87 -112 -157 -279 -235 -504 -235
-182 0 -322 53 -431 161 -67 68 -130 184 -149 277 -26 128 -5 336 45 434 26
52 3 23 -36 -45 -59 -102 -76 -81 -80 98 -1 55 -5 120 -9 145 l-7 45 -8 -55
c-4 -30 -6 -274 -5 -543 2 -314 -1 -491 -8 -498 -6 -6 -76 -8 -179 -7 l-169 3
-5 555 -5 555 -26 2 c-25 1 -28 -4 -143 -370z"/>
<path d="M2659 1809 c24 -11 46 -18 48 -15 4 4 -73 36 -85 35 -4 0 13 -9 37
-20z"/>
<path d="M5145 1795 c3 -16 27 -149 54 -295 27 -146 52 -292 56 -325 11 -88
21 -97 29 -24 4 35 32 193 62 350 30 158 54 293 54 300 0 36 -14 -15 -45 -162
-19 -90 -42 -183 -51 -206 -34 -92 -66 -36 -114 202 -17 88 -36 167 -41 175
-7 11 -8 6 -4 -15z"/>
<path d="M5941 1811 c-1 -7 23 -140 53 -295 30 -154 58 -309 62 -344 3 -34 10
-65 14 -67 4 -3 11 23 14 58 4 34 32 191 62 348 30 158 54 293 53 300 -1 30
-18 -34 -44 -162 -69 -349 -102 -344 -175 25 -21 106 -38 165 -39 137z"/>
<path d="M6892 1738 c-70 -196 -303 -910 -300 -919 2 -6 79 216 170 492 92
277 166 505 164 507 -2 1 -17 -34 -34 -80z"/>
<path d="M7848 1790 c-4 -19 -9 -222 -11 -450 -2 -228 -8 -425 -12 -438 -11
-33 -36 -23 -63 25 -12 23 -83 221 -156 441 -74 220 -139 409 -146 419 -15 24
-26 57 169 -530 142 -424 171 -520 161 -533 -11 -12 -43 -14 -189 -12 l-176 3
-25 83 -24 82 -188 0 -187 0 -26 -85 -26 -85 -178 0 c-124 0 -181 4 -189 12
-17 17 -16 -22 1 -45 15 -20 194 -32 301 -20 l70 8 24 60 c39 98 33 95 207 95
106 0 156 -4 167 -12 9 -7 26 -38 39 -68 36 -88 28 -85 214 -85 193 1 205 6
205 84 0 52 9 46 34 -22 22 -59 30 -62 214 -61 118 0 145 3 159 16 12 12 18
47 25 130 13 161 12 160 51 156 31 -3 35 -9 104 -150 l71 -146 95 -7 c52 -4
137 -3 188 1 85 8 95 11 106 33 13 28 7 49 -10 32 -7 -7 -75 -11 -193 -11
l-182 0 -69 163 -69 162 -55 0 -54 0 0 -152 c0 -95 -4 -156 -11 -163 -7 -7
-68 -10 -180 -8 l-169 3 -5 555 c-3 305 -8 539 -12 520z"/>
<path d="M8918 1790 c-4 -19 -12 -95 -18 -169 -6 -74 -14 -139 -17 -144 -3 -5
-18 22 -33 60 -15 39 -35 81 -45 94 -14 19 -16 20 -10 4 28 -72 36 -126 32
-205 -6 -111 -34 -185 -97 -253 l-48 -52 23 -45 c13 -25 51 -108 85 -185 34
-77 65 -142 67 -145 17 -19 -18 73 -63 166 -75 156 -76 158 -21 246 45 72 97
206 97 249 0 14 4 19 9 14 20 -20 34 -258 27 -455 -5 -161 -4 -204 9 -247 13
-43 21 -54 43 -60 15 -5 199 -8 409 -8 342 0 384 2 399 17 21 21 37 175 25
238 -7 38 -9 28 -10 -66 -1 -81 -5 -115 -15 -123 -9 -8 -129 -10 -422 -9
l-409 3 -5 555 c-3 305 -8 539 -12 520z"/>
<path d="M545 1795 c2 -11 35 -135 74 -275 38 -140 79 -303 92 -362 13 -60 26
-108 30 -108 3 0 14 39 24 88 10 48 51 211 92 362 93 345 86 319 74 299 -6 -9
-38 -115 -71 -235 -72 -257 -90 -304 -119 -304 -30 0 -45 36 -112 277 -33 119
-67 230 -75 247 -7 17 -12 22 -9 11z"/>
<path d="M4750 1785 c0 -56 197 -947 233 -1055 l22 -65 55 -7 c75 -8 300 -9
395 -1 75 6 78 7 91 38 7 17 27 99 43 181 37 176 68 284 82 284 17 0 26 -33
102 -369 32 -146 11 -136 300 -136 181 0 248 3 259 13 24 19 51 125 158 618
94 433 113 542 91 519 -5 -6 -62 -254 -127 -553 l-118 -542 -262 0 -263 0 -10
53 c-44 221 -87 455 -106 577 -17 115 -23 138 -29 110 -3 -19 -15 -91 -27
-160 -11 -69 -39 -226 -63 -350 l-43 -225 -263 0 -264 0 -120 548 c-66 301
-123 547 -128 547 -4 0 -8 -11 -8 -25z"/>
<path d="M9761 1710 c-1 -68 -5 -110 -13 -118 -9 -9 -75 -12 -235 -12 l-223 0
0 -70 0 -70 73 1 c60 1 67 2 41 10 -17 5 -37 16 -44 24 -26 32 4 39 191 45
220 7 213 2 223 142 4 51 2 106 -3 123 -7 23 -9 6 -10 -75z"/>
<path d="M433 1733 c9 -2 23 -2 30 0 6 3 -1 5 -18 5 -16 0 -22 -2 -12 -5z"/>
<path d="M1023 1733 c9 -2 23 -2 30 0 6 3 -1 5 -18 5 -16 0 -22 -2 -12 -5z"/>
<path d="M1553 1733 c9 -2 25 -2 35 0 9 3 1 5 -18 5 -19 0 -27 -2 -17 -5z"/>
<path d="M3193 1733 c9 -2 25 -2 35 0 9 3 1 5 -18 5 -19 0 -27 -2 -17 -5z"/>
<path d="M5013 1733 c9 -2 23 -2 30 0 6 3 -1 5 -18 5 -16 0 -22 -2 -12 -5z"/>
<path d="M6303 1733 c9 -2 23 -2 30 0 6 3 -1 5 -18 5 -16 0 -22 -2 -12 -5z"/>
<path d="M6983 1733 c9 -2 23 -2 30 0 6 3 -1 5 -18 5 -16 0 -22 -2 -12 -5z"/>
<path d="M7368 1733 c6 -2 18 -2 25 0 6 3 1 5 -13 5 -14 0 -19 -2 -12 -5z"/>
<path d="M8023 1733 c9 -2 25 -2 35 0 9 3 1 5 -18 5 -19 0 -27 -2 -17 -5z"/>
<path d="M9093 1733 c9 -2 23 -2 30 0 6 3 -1 5 -18 5 -16 0 -22 -2 -12 -5z"/>
<path d="M8220 1443 l0 -118 87 6 c49 3 96 9 106 13 25 12 47 58 47 100 0 84
-45 116 -164 116 l-76 0 0 -117z m181 39 c47 -39 13 -128 -51 -132 -73 -6
-100 18 -100 88 0 27 3 52 7 55 3 4 32 7 64 7 40 0 63 -5 80 -18z"/>
<path d="M7176 1504 c-4 -22 -27 -109 -52 -194 -24 -85 -44 -157 -44 -160 0
-3 49 -5 110 -5 93 0 109 2 105 15 -21 69 -84 292 -90 320 -12 59 -22 66 -29
24z m45 -223 c6 -20 9 -50 7 -66 -2 -24 -8 -31 -31 -33 -43 -5 -60 15 -53 61
4 22 13 52 22 69 12 24 18 27 30 18 7 -7 19 -29 25 -49z"/>
<path d="M3511 1394 c0 -11 3 -14 6 -6 3 7 2 16 -1 19 -3 4 -6 -2 -5 -13z"/>
<path d="M4721 1394 c0 -11 3 -14 6 -6 3 7 2 16 -1 19 -3 4 -6 -2 -5 -13z"/>
<path d="M9678 1275 l-3 -120 -192 -3 -193 -2 0 -70 0 -70 73 1 c60 1 67 2 41
10 -17 5 -37 16 -44 24 -25 30 5 39 154 44 87 4 150 11 156 17 19 19 30 83 30
174 0 138 -19 134 -22 -5z"/>
<path d="M3500 1330 c-11 -152 10 -269 67 -390 68 -142 243 -284 398 -325 76
-20 234 -20 310 0 155 41 330 183 398 325 49 101 67 185 65 300 l-1 95 -8 -95
c-13 -163 -75 -296 -186 -400 -212 -199 -483 -233 -726 -92 -78 45 -174 137
-216 206 -58 97 -82 178 -91 306 -4 65 -8 95 -10 70z"/>
<path d="M4069 1331 c-16 -16 -29 -39 -29 -51 0 -28 52 -80 80 -80 28 0 80 52
80 80 0 28 -52 80 -80 80 -12 0 -35 -13 -51 -29z"/>
<path d="M3775 900 c-27 -16 -59 -30 -70 -30 -16 -1 -11 -9 25 -41 91 -83 203
-134 319 -145 l66 -7 -27 26 c-16 15 -33 47 -40 74 -9 32 -26 60 -53 87 -75
73 -140 84 -220 36z"/>
</g>
</svg>
